<svg width="72" height="78" viewBox="0 0 72 78" fill="none" xmlns="http://www.w3.org/2000/svg">
<path d="M68.2198 23.3114C68.1942 22.4587 67.4881 21.5497 66.4329 21.3579C66.2626 21.3269 66.157 21.3109 66.0673 21.307C65.7186 21.291 13.6455 18.9169 12.3626 18.8588C11.3291 18.8118 10.6794 18.6262 10.1176 19.5357C9.81566 20.024 9.75104 20.6016 9.76213 21.152C9.78962 22.3443 9.84412 22.9892 9.84412 23.3197C9.84412 27.6051 8.18987 29.0301 5.6757 29.5252C3.59945 29.9346 1.42578 29.9356 1.42578 29.9356L6.76085 69.8028C6.76085 69.8028 60.5548 77.9702 61.4229 77.9949C61.9809 78.0109 63.1273 78.0007 63.6699 77.7996C65.0569 77.2866 66.0032 76.4067 66.5351 75.5632C67.4476 74.115 68.0317 72.7215 68.3418 71.1818C68.7021 69.392 68.8969 67.5014 68.8689 65.6811C68.8689 65.6811 68.2193 23.3119 68.2193 23.3114H68.2198Z" fill="url(#paint0_linear_35_13609)"/>
<path d="M68.8689 65.6816C68.8964 67.5014 68.7016 69.392 68.3418 71.1813C68.0317 72.721 67.4472 74.115 66.5342 75.5632C66.0032 76.4067 65.0564 77.287 63.6689 77.7992C63.1273 78.0002 61.9804 78.0109 61.4219 77.9949C61.3525 77.9925 60.9498 77.9397 60.2659 77.8423C52.3443 76.7231 6.76037 69.8028 6.76037 69.8028L1.42578 29.9356C1.42578 29.9356 3.59945 29.9342 5.67474 29.5243C8.18842 29.0291 9.84267 27.6046 9.84267 23.3192C9.84267 22.9883 9.78914 22.3443 9.76165 21.1515C9.75007 20.6011 9.81373 20.024 10.1161 19.5357C10.6785 18.6262 11.3272 18.8118 12.3617 18.8588C13.6445 18.9165 65.7181 21.2905 66.0659 21.3065C66.104 21.308 66.1455 21.3119 66.1927 21.3182C66.2569 21.3259 66.334 21.339 66.4319 21.3574C67.4872 21.5493 68.1937 22.4582 68.2183 23.3109L68.8685 65.6807L68.8689 65.6816Z" fill="url(#paint1_linear_35_13609)"/>
<path d="M60.7503 20.8574C62.1962 16.834 64.3848 12.3887 68.0155 9.86534C68.7491 9.35564 69.7556 8.71658 70.3922 8.17587C68.7664 8.10077 66.8556 8.13904 65.2274 8.12209C61.2992 8.08139 44.8826 7.91036 40.6022 7.86578C37.8233 7.83671 35.0448 7.80812 32.2659 7.77905C29.0215 7.74562 26.1732 11.1348 24.558 13.6145C22.7364 16.4115 21.5755 19.6006 20.7228 22.8153C19.5668 27.1724 17.0849 48.5654 16.7222 50.5364C16.0808 54.0253 14.2992 59.5536 9.85156 59.2696C11.6355 59.3985 45.1845 62.0725 47.798 62.259C50.847 62.4771 52.8162 60.1829 54.0214 57.6441C55.4982 54.5326 56.8206 40.711 57.2455 37.1339C57.6714 33.5495 60.0973 22.6719 60.7498 20.8569L60.7503 20.8574Z" fill="url(#paint2_linear_35_13609)"/>
<path d="M60.7503 20.8574C62.1962 16.834 64.3848 12.3887 68.0155 9.86534C68.7491 9.35564 69.7556 8.71658 70.3922 8.17587C68.7664 8.10077 66.8556 8.13904 65.2274 8.12209C61.2992 8.08139 44.8826 7.91036 40.6022 7.86578C37.8233 7.83671 35.0448 7.80812 32.2659 7.77905C29.0215 7.74562 26.1732 11.1348 24.558 13.6145C22.7364 16.4115 21.5755 19.6006 20.7228 22.8153C19.5668 27.1724 17.0849 48.5654 16.7222 50.5364C16.0808 54.0253 14.2992 59.5536 9.85156 59.2696C11.6355 59.3985 45.1845 62.0725 47.798 62.259C50.847 62.4771 52.8162 60.1829 54.0214 57.6441C55.4982 54.5326 56.8206 40.711 57.2455 37.1339C57.6714 33.5495 60.0973 22.6719 60.7498 20.8569L60.7503 20.8574Z" fill="url(#paint3_linear_35_13609)"/>
<path d="M53.3687 63.1786C54.5233 62.1732 55.458 60.8917 56.1559 59.5482C57.1513 57.6319 57.7532 55.4555 58.1511 53.3392C59.0149 48.747 59.2859 44.0531 59.7851 39.412C60.0494 36.9536 60.3465 34.4962 60.7424 32.0557C61.257 28.8842 61.94 25.7164 62.9031 22.6505C63.8903 19.508 65.2885 16.0898 67.5924 13.6808C68.6124 12.6144 69.7685 11.8077 71.0846 11.3304C71.9417 11.0199 72.1548 10.0794 71.8958 9.3052C71.6383 8.53483 70.843 7.9573 70.027 8.25139C68.5729 8.77708 67.2398 9.71654 66.0298 10.9656C63.287 13.7966 61.5242 17.6508 60.2524 21.3404C59.1229 24.6171 58.3527 28.0629 57.7957 31.4826C57.3886 33.9826 57.0824 36.5026 56.8113 39.021C56.4303 42.5642 56.1163 46.1166 55.6779 49.6531C55.3427 52.3581 54.8793 55.3136 53.6615 57.7768C53.1749 58.7613 52.273 59.8553 51.2148 60.6819L53.3683 63.1786H53.3687Z" fill="url(#paint4_linear_35_13609)"/>
<path d="M55.1175 13.0786C56.5634 9.05521 58.752 4.60985 62.3827 2.08654C63.1162 1.57683 64.1228 0.937768 64.7594 0.397057C63.1336 0.321959 61.2228 0.360235 59.5946 0.343277C55.6668 0.302578 39.2497 0.131547 34.9694 0.0869723C32.1905 0.0579018 29.412 0.0293159 26.6331 0.000245419C23.3887 -0.0331856 20.5403 3.35595 18.9252 5.83566C17.1036 8.63272 15.9427 11.8217 15.09 15.0365C13.934 19.3936 11.4521 40.7866 11.0894 42.7576C10.448 46.2465 8.66641 51.7747 4.21875 51.4908C6.00273 51.6197 39.5517 54.2937 42.1652 54.4802C45.2142 54.6983 47.1834 52.4041 48.3886 49.8653C49.8654 46.7538 51.1878 32.9322 51.6127 29.3551C52.0386 25.7707 54.4645 14.893 55.117 13.0781L55.1175 13.0786Z" fill="url(#paint5_radial_35_13609)"/>
<path d="M55.1175 13.0786C56.5634 9.05521 58.752 4.60985 62.3827 2.08654C63.1162 1.57683 64.1228 0.937768 64.7594 0.397057C63.1336 0.321959 61.2228 0.360235 59.5946 0.343277C55.6668 0.302578 39.2497 0.131547 34.9694 0.0869723C32.1905 0.0579018 29.412 0.0293159 26.6331 0.000245419C23.3887 -0.0331856 20.5403 3.35595 18.9252 5.83566C17.1036 8.63272 15.9427 11.8217 15.09 15.0365C13.934 19.3936 11.4521 40.7866 11.0894 42.7576C10.448 46.2465 8.66641 51.7747 4.21875 51.4908C6.00273 51.6197 39.5517 54.2937 42.1652 54.4802C45.2142 54.6983 47.1834 52.4041 48.3886 49.8653C49.8654 46.7538 51.1878 32.9322 51.6127 29.3551C52.0386 25.7707 54.4645 14.893 55.117 13.0781L55.1175 13.0786Z" fill="url(#paint6_linear_35_13609)"/>
<path d="M47.7486 55.3891C48.8974 54.3852 49.8287 53.1076 50.5242 51.7689C51.5196 49.8526 52.1215 47.6762 52.5194 45.5599C53.3832 40.9677 53.6547 36.2738 54.1534 31.6327C54.4177 29.1743 54.7148 26.7169 55.1107 24.2764C55.6253 21.1049 56.3083 17.9371 57.2714 14.8712C58.2586 11.7287 59.6568 8.31046 61.9607 5.90149C62.9807 4.83509 64.1368 4.02838 65.4529 3.55114C66.3099 3.24057 66.5231 2.30014 66.2641 1.5259C66.0066 0.755534 65.2113 0.178 64.3953 0.472097C62.9412 0.997787 61.6081 1.93725 60.3981 3.18631C57.6553 6.01729 55.8925 9.87155 54.6207 13.5611C53.4912 16.8378 52.721 20.2836 52.164 23.7033C51.7569 26.2033 51.4506 28.7233 51.1796 31.2417C50.7986 34.7849 50.4846 38.3373 50.0462 41.8738C49.711 44.5788 49.2476 47.5343 48.0298 49.9975C47.5567 50.9544 46.6914 52.015 45.6719 52.8324L47.7486 55.3891Z" fill="url(#paint7_linear_35_13609)"/>
<path d="M57.0855 43.7541L27.432 42.2086C26.2634 42.1485 25.2338 41.4925 24.7751 40.5157L21.0104 32.4961C20.5517 31.5194 19.522 30.8633 18.3534 30.8033C18.3534 30.8033 1.40439 29.9336 1.39619 29.9331C0.831434 29.9069 0.487562 30.4287 0.294165 30.8352C0.069901 31.3071 -0.0120879 31.8299 0.00141613 32.3416C0.00141613 32.344 0.00141613 32.3469 0.00141613 32.3493L0.793333 64.9925C0.838668 66.8371 1.14685 68.701 1.92189 70.4156C2.26431 71.1734 2.70126 71.9089 3.28628 72.5363C3.95473 73.2529 4.92172 73.8668 5.98854 73.9438C6.51954 73.9826 7.05102 74.0213 7.58202 74.0601C9.01972 74.1652 10.4579 74.2704 11.8956 74.3755C14.01 74.5301 16.1238 74.6846 18.2382 74.8392C20.7982 75.0262 23.3581 75.2132 25.9181 75.4003C28.6937 75.6033 31.4688 75.8058 34.2443 76.0088C37.0045 76.2103 39.7651 76.4124 42.5252 76.6139C45.0399 76.7976 47.555 76.9817 50.0697 77.1653C52.1083 77.3141 54.1474 77.4633 56.186 77.612C57.5186 77.7094 58.8507 77.8068 60.1832 77.9042C60.5966 77.9342 61.4232 77.9948 61.4232 77.9948L57.0855 43.7541Z" fill="url(#paint8_linear_35_13609)"/>
<path d="M61.3351 77.9875C61.3351 77.9875 60.5673 77.9308 60.1844 77.9047C58.8518 77.8063 57.5202 77.7089 56.1877 77.6116C54.1486 77.4633 52.1099 77.3131 50.0708 77.1648C47.5557 76.9807 45.041 76.7971 42.5259 76.613C39.7662 76.4119 37.0056 76.2099 34.2445 76.0088C31.4694 75.8068 28.6944 75.6028 25.9188 75.4003C23.3578 75.2123 20.7988 75.0257 18.2379 74.8392C16.1245 74.6842 14.0097 74.5306 11.8963 74.3755C10.4576 74.2704 9.02039 74.1652 7.58172 74.0601C7.05072 74.0218 6.51972 73.9826 5.98872 73.9433C4.92142 73.8673 3.95492 73.2534 3.28695 72.5363C2.70097 71.9094 2.26401 71.1739 1.92159 70.4156C1.14752 68.701 0.838853 66.8366 0.793036 64.9935L0.00160126 32.3498V32.3421C-0.0128674 31.8309 0.0696039 31.3081 0.29435 30.8352C0.487748 30.4292 0.830654 29.9079 1.39541 29.9341C1.40313 29.9341 14.8474 30.624 17.7889 30.7752C18.1496 30.7936 18.3527 30.8042 18.3527 30.8042C19.5217 30.8648 20.5509 31.5203 21.0101 32.4966L24.7753 40.5162C25.233 41.4925 26.2636 42.1495 27.4312 42.2086L27.506 42.2124L57.1209 43.7566L61.3342 77.988L61.3351 77.9875Z" fill="url(#paint9_linear_35_13609)"/>
<path d="M68.8696 65.6816C68.8971 67.5014 68.7023 69.3919 68.3425 71.1812C68.0324 72.721 67.4478 74.1149 66.5349 75.5631C66.0039 76.4067 65.0571 77.287 63.6696 77.7991C63.128 78.0002 61.9811 78.0109 61.4226 77.9949C61.3532 77.9924 61.0228 78.0167 60.376 77.772C60.0293 77.6412 59.6531 77.3563 59.2489 76.9803C58.0548 75.8674 57.4466 74.3577 57.0531 72.8746C56.7053 71.5674 56.5197 70.172 56.5197 68.8265L55.9549 46.2301C55.9433 45.5348 55.9535 43.6719 57.1216 43.7562C58.321 43.8429 60.5598 44.3618 62.7764 42.6747C65.0388 40.9509 65.2274 32.4279 65.2037 30.7752L65.0938 23.8003C65.0832 23.0972 65.2182 21.3617 66.1939 21.3186C66.258 21.3264 66.3352 21.3394 66.4331 21.3578C67.4883 21.5497 68.1949 22.4587 68.2195 23.3114L68.8696 65.6811V65.6816Z" fill="url(#paint10_linear_35_13609)"/>
<path d="M68.8696 65.6816C68.8971 67.5014 68.7023 69.3919 68.3425 71.1812C68.0324 72.721 67.4478 74.1149 66.5349 75.5631C66.0039 76.4067 65.0571 77.287 63.6696 77.7991C63.128 78.0002 61.9811 78.0109 61.4226 77.9949C61.3532 77.9924 61.0228 78.0167 60.376 77.772C60.0293 77.6412 59.6531 77.3563 59.2489 76.9803C58.0548 75.8674 57.4466 74.3577 57.0531 72.8746C56.7053 71.5674 56.5197 70.172 56.5197 68.8265L55.9549 46.2301C55.9433 45.5348 55.9535 43.6719 57.1216 43.7562C58.321 43.8429 60.5598 44.3618 62.7764 42.6747C65.0388 40.9509 65.2274 32.4279 65.2037 30.7752L65.0938 23.8003C65.0832 23.0972 65.2182 21.3617 66.1939 21.3186C66.258 21.3264 66.3352 21.3394 66.4331 21.3578C67.4883 21.5497 68.1949 22.4587 68.2195 23.3114L68.8696 65.6811V65.6816Z" fill="url(#paint11_radial_35_13609)"/>
<path d="M26.0261 42.1596C24.7263 42.102 22.8782 41.5748 22.2686 40.2807L17.7891 30.7751C18.1498 30.7936 18.3529 30.8042 18.3529 30.8042C19.5219 30.8648 20.5511 31.5203 21.0103 32.4966L24.7755 40.5162C25.2332 41.4925 26.2638 42.1495 27.4314 42.2086C27.4314 42.2086 26.8392 42.1955 26.0256 42.1601L26.0261 42.1596Z" fill="url(#paint12_linear_35_13609)"/>
<defs>
<linearGradient id="paint0_linear_35_13609" x1="1.42626" y1="77.9998" x2="68.8718" y2="77.9998" gradientUnits="userSpaceOnUse">
<stop stop-color="#5A87F6"/>
<stop offset="0.06" stop-color="#456BF8"/>
<stop offset="0.13" stop-color="#3453FA"/>
<stop offset="0.16" stop-color="#395BF9"/>
<stop offset="0.29" stop-color="#4A75F7"/>
<stop offset="0.42" stop-color="#5788F6"/>
<stop offset="0.56" stop-color="#5E94F5"/>
<stop offset="0.7" stop-color="#6198F5"/>
<stop offset="0.81" stop-color="#5F95F5"/>
<stop offset="0.88" stop-color="#5A8BF6"/>
<stop offset="0.95" stop-color="#517BF8"/>
<stop offset="1" stop-color="#496CFB"/>
</linearGradient>
<linearGradient id="paint1_linear_35_13609" x1="26.6889" y1="19.3528" x2="26.1212" y2="36.3773" gradientUnits="userSpaceOnUse">
<stop offset="0.02" stop-color="#83BCFA"/>
<stop offset="0.2" stop-color="#83BCFA"/>
</linearGradient>
<linearGradient id="paint2_linear_35_13609" x1="34.9577" y1="44.0532" x2="57.8831" y2="45.8671" gradientUnits="userSpaceOnUse">
<stop offset="0.69" stop-color="#729EB1"/>
<stop offset="0.84" stop-color="#91BCCC"/>
<stop offset="1" stop-color="#B7DFED"/>
</linearGradient>
<linearGradient id="paint3_linear_35_13609" x1="11.313" y1="4.33591" x2="8.09011" y2="59.8119" gradientUnits="userSpaceOnUse">
<stop offset="0.03" stop-color="#CFEBFE"/>
<stop offset="0.2" stop-color="#B4D8E9"/>
<stop offset="0.37" stop-color="#9EC9D8"/>
<stop offset="0.54" stop-color="#94BECC"/>
<stop offset="0.67" stop-color="#8AB3C1"/>
</linearGradient>
<linearGradient id="paint4_linear_35_13609" x1="71.8872" y1="-41.4794" x2="24.823" y2="-33.4651" gradientUnits="userSpaceOnUse">
<stop stop-color="#F3F8FB"/>
<stop offset="0.03" stop-color="#E6F3FC"/>
<stop offset="0.09" stop-color="#D8EEFD"/>
<stop offset="0.16" stop-color="#D1EBFD"/>
<stop offset="0.3" stop-color="#CFEBFE"/>
<stop offset="0.45" stop-color="#BBDBEC"/>
<stop offset="0.76" stop-color="#8AB3C1"/>
</linearGradient>
<radialGradient id="paint5_radial_35_13609" cx="0" cy="0" r="1" gradientUnits="userSpaceOnUse" gradientTransform="translate(-82.4095 15.4949) rotate(4.1389) scale(153.005 137.893)">
<stop offset="0.63" stop-color="#B7DFED"/>
<stop offset="0.63" stop-color="#C0E3EF"/>
<stop offset="0.65" stop-color="#D7ECF4"/>
<stop offset="0.67" stop-color="#E6F2F8"/>
<stop offset="0.7" stop-color="#F0F6FA"/>
<stop offset="0.73" stop-color="#F3F8FB"/>
<stop offset="0.82" stop-color="#F3F8FB"/>
<stop offset="0.82" stop-color="#F3F8FB"/>
<stop offset="0.85" stop-color="#EAF4F8"/>
<stop offset="0.88" stop-color="#D1EAF3"/>
<stop offset="0.92" stop-color="#B7DFED"/>
<stop offset="0.95" stop-color="#B1D9E8"/>
<stop offset="0.99" stop-color="#A0CBD9"/>
<stop offset="1" stop-color="#9EC9D8"/>
</radialGradient>
<linearGradient id="paint6_linear_35_13609" x1="5.67962" y1="-3.44314" x2="2.45668" y2="52.0333" gradientUnits="userSpaceOnUse">
<stop stop-color="#B7DFED"/>
<stop offset="0.21" stop-color="#F3F8FB"/>
<stop offset="0.82" stop-color="#9EC9D8"/>
<stop offset="0.93" stop-color="#91BBC9"/>
<stop offset="0.99" stop-color="#8AB3C1"/>
</linearGradient>
<linearGradient id="paint7_linear_35_13609" x1="64.6053" y1="-43.9379" x2="19.6771" y2="-35.1365" gradientUnits="userSpaceOnUse">
<stop stop-color="#F3F8FB"/>
<stop offset="0.03" stop-color="#E6F3FC"/>
<stop offset="0.09" stop-color="#D8EEFD"/>
<stop offset="0.16" stop-color="#D1EBFD"/>
<stop offset="0.3" stop-color="#CFEBFE"/>
<stop offset="0.45" stop-color="#BBDBEC"/>
<stop offset="0.76" stop-color="#8AB3C1"/>
</linearGradient>
<linearGradient id="paint8_linear_35_13609" x1="-3.07368e-05" y1="77.9952" x2="61.4237" y2="77.9952" gradientUnits="userSpaceOnUse">
<stop stop-color="#6198F5"/>
<stop offset="0.05" stop-color="#72AAF7"/>
<stop offset="0.1" stop-color="#7EB7F9"/>
<stop offset="0.14" stop-color="#83BCFA"/>
<stop offset="0.32" stop-color="#6EA5F6"/>
<stop offset="0.47" stop-color="#6198F5"/>
<stop offset="0.63" stop-color="#5D90F5"/>
<stop offset="0.75" stop-color="#5A87F6"/>
</linearGradient>
<linearGradient id="paint9_linear_35_13609" x1="-0.00809286" y1="25.5517" x2="-2.29615" y2="76.8737" gradientUnits="userSpaceOnUse">
<stop offset="0.11" stop-color="#83BCFA"/>
<stop offset="0.13" stop-color="#74ACF7"/>
<stop offset="0.16" stop-color="#69A0F6"/>
<stop offset="0.2" stop-color="#6299F5"/>
<stop offset="0.32" stop-color="#6198F5"/>
<stop offset="0.42" stop-color="#5C8FF6"/>
<stop offset="0.82" stop-color="#4C6FFA"/>
<stop offset="0.92" stop-color="#496CFB"/>
<stop offset="1" stop-color="#496CFB"/>
</linearGradient>
<linearGradient id="paint10_linear_35_13609" x1="53.6441" y1="84.9444" x2="69.6668" y2="84.9336" gradientUnits="userSpaceOnUse">
<stop offset="0.15" stop-color="#5A87F6"/>
<stop offset="0.54" stop-color="#496CFB"/>
<stop offset="0.66" stop-color="#4B70FA"/>
<stop offset="0.8" stop-color="#537EF8"/>
<stop offset="0.94" stop-color="#5F96F5"/>
<stop offset="0.95" stop-color="#6198F5"/>
</linearGradient>
<radialGradient id="paint11_radial_35_13609" cx="0" cy="0" r="1" gradientUnits="userSpaceOnUse" gradientTransform="translate(58.8342 21.8118) scale(55.956 245.503)">
<stop offset="0.02" stop-color="#6198F5"/>
<stop offset="0.4" stop-color="#6198F5"/>
<stop offset="0.65" stop-color="#6198F5"/>
<stop offset="0.87" stop-color="#4C6FFA"/>
<stop offset="0.99" stop-color="#4C6FFA"/>
<stop offset="1" stop-color="#4C6FFA"/>
</radialGradient>
<linearGradient id="paint12_linear_35_13609" x1="23.9689" y1="32.8164" x2="19.3789" y2="34.3647" gradientUnits="userSpaceOnUse">
<stop offset="0.31" stop-color="#496CFB"/>
<stop offset="0.87" stop-color="#496CFB"/>
</linearGradient>
</defs>
</svg>
