<svg width="109" height="109" viewBox="0 0 109 109" fill="none" xmlns="http://www.w3.org/2000/svg">
<path d="M82.8064 47.5495C81.2642 49.0986 80.0832 50.9683 79.3475 53.0249C78.6118 55.0819 78.3395 57.2754 78.5499 59.4494L78.4767 59.3763C78.6931 61.9355 78.3473 64.5105 77.4638 66.9226C76.5803 69.3343 75.1805 71.5246 73.3619 73.3406C71.5429 75.1563 69.3491 76.5543 66.9332 77.436C64.5176 78.318 61.9381 78.6633 59.3752 78.4472L59.4485 78.5203C56.3826 78.2355 53.3034 78.9014 50.6302 80.4278C47.9575 81.9542 45.8211 84.2664 44.5128 87.0494C43.2045 89.8324 42.7874 92.9502 43.3188 95.9787C43.8507 99.0067 45.3047 101.797 47.483 103.97C49.6613 106.143 52.4577 107.592 55.491 108.12C58.5247 108.648 61.6471 108.229 64.4334 106.92C67.2197 105.611 69.5335 103.477 71.0599 100.807C72.5863 98.1364 73.2508 95.0617 72.9627 92.0008L73.04 92.0739C72.8235 89.5151 73.169 86.9397 74.0525 84.5276C74.9359 82.1159 76.3362 79.9256 78.1548 78.1096C79.9738 76.2939 82.1675 74.8959 84.5831 74.0142C86.9991 73.1322 89.5782 72.7869 92.1415 73.003L92.0642 72.9299C94.5684 73.1546 97.0894 72.7446 99.393 71.7378C101.696 70.7311 103.708 69.16 105.241 67.1704C106.775 65.1809 107.781 62.8366 108.165 60.3559C108.549 57.8747 108.3 55.3371 107.441 52.9774C106.582 50.6181 105.139 48.5136 103.248 46.8588C101.357 45.204 99.0785 44.0526 96.623 43.5114C94.1676 42.9702 91.6149 43.0564 89.2018 43.7621C86.7887 44.4682 84.5933 45.7707 82.8186 47.5495H82.8064Z" fill="#485FE5"/>
<path d="M52.7904 68.9391L52.7131 68.866C54.8914 69.085 57.0913 68.8181 59.154 68.0843C61.2164 67.3506 63.0899 66.1687 64.6387 64.6236C66.1871 63.0785 67.3729 61.2088 68.109 59.1502C68.8456 57.0916 69.1145 54.8956 68.8968 52.7204L68.9742 52.7935C68.7577 50.2343 69.1036 47.6593 69.9866 45.2472C70.8701 42.8355 72.2703 40.6453 74.0889 38.8292C75.9079 37.0135 78.1017 35.6155 80.5172 34.7339C82.9332 33.8517 85.5123 33.5066 88.0756 33.7226L87.9983 33.6495C91.0645 33.9371 94.1446 33.2731 96.819 31.7485C99.4937 30.2239 101.632 27.9127 102.942 25.1302C104.252 22.3477 104.671 19.2294 104.141 16.2005C103.611 13.1716 102.159 10.3797 99.9808 8.20556C97.8033 6.03143 95.0069 4.58084 91.9732 4.05178C88.9395 3.52268 85.8163 3.94078 83.0292 5.24909C80.2421 6.55736 77.9275 8.69217 76.4003 11.3623C74.8731 14.0324 74.2081 17.1078 74.4962 20.1691L74.423 20.0919C74.6399 22.651 74.2948 25.2266 73.4118 27.6388C72.5287 30.0509 71.1285 32.2416 69.3099 34.0578C67.4909 35.8735 65.2967 37.2715 62.8807 38.1531C60.4644 39.0348 57.8848 39.3793 55.3215 39.1627L55.3948 39.2399C53.2165 39.0209 51.0162 39.2879 48.9538 40.0216C46.8915 40.755 45.018 41.9372 43.4692 43.4823C41.9204 45.0274 40.735 46.8971 39.9985 48.9558C39.2623 51.0144 38.9933 53.2103 39.2111 55.3856L39.1378 55.3124C39.3535 57.8712 39.0072 60.4462 38.1237 62.8579C37.2399 65.2692 35.84 67.4595 34.0214 69.2751C32.2027 71.0908 30.0091 72.4884 27.5938 73.3709C25.1784 74.2529 22.5993 74.5986 20.0364 74.3833L20.1096 74.4564C17.0434 74.1688 13.9631 74.8327 11.2887 76.3574C8.6143 77.8822 6.47607 80.1931 5.16571 82.9758C3.8553 85.7584 3.43649 88.8766 3.96643 91.9054C4.49638 94.9343 5.9493 97.7262 8.12692 99.9002C10.3046 102.075 13.1009 103.525 16.1347 104.054C19.1684 104.583 22.2917 104.165 25.0787 102.857C27.8656 101.549 30.1805 99.4139 31.7076 96.7438C33.2348 94.0734 33.8998 90.9982 33.6117 87.9369L33.689 88.01C33.4725 85.4508 33.8184 82.8758 34.7018 80.4637C35.5849 78.052 36.9851 75.8618 38.8037 74.0457C40.6227 72.23 42.8165 70.832 45.232 69.9504C47.648 69.0683 50.2271 68.723 52.7904 68.9391Z" fill="#485FE5"/>
<path d="M25.5143 60.7837C27.0567 59.235 28.2375 57.3652 28.9726 55.3082C29.7077 53.2512 29.9789 51.0573 29.7668 48.8837L29.844 48.9568C29.6276 46.3973 29.9733 43.821 30.8572 41.4085C31.7411 38.996 33.1419 36.8054 34.9617 34.9893C36.7815 33.1733 38.9761 31.7757 41.3928 30.8943C43.8096 30.0128 46.39 29.6687 48.9537 29.886L48.8764 29.8128C51.9414 30.0996 55.0206 29.4353 57.6938 27.9108C60.3669 26.3863 62.5037 24.0757 63.8137 21.294C65.1232 18.5124 65.5415 15.3952 65.0117 12.3675C64.4818 9.33973 63.0291 6.5489 60.8524 4.37554C58.6757 2.20217 55.8801 0.75207 52.8476 0.22301C49.8152 -0.306091 46.6928 0.111648 43.9069 1.41914C41.1206 2.72664 38.8064 4.86031 37.2796 7.52918C35.7523 10.198 35.087 13.2722 35.3743 16.3324L35.3011 16.2593C35.5175 18.8182 35.1717 21.3935 34.2882 23.8054C33.4048 26.2172 32.005 28.4076 30.1861 30.2235C28.3674 32.0394 26.1735 33.4371 23.7578 34.3189C21.3421 35.201 18.7627 35.5463 16.1996 35.3302L16.2729 35.4033C13.7685 35.179 11.2479 35.5898 8.94472 36.5969C6.64155 37.6041 4.63029 39.1756 3.09733 41.1656C1.56437 43.1551 0.559325 45.4994 0.175262 47.9801C-0.208761 50.4613 0.0406482 52.9989 0.900376 55.3578C1.7601 57.7171 3.2024 59.8212 5.09354 61.4756C6.98468 63.1304 9.26351 64.2814 11.7189 64.8226C14.1742 65.3633 16.7266 65.2768 19.1396 64.5711C21.5525 63.8649 23.7479 62.5624 25.5224 60.7837H25.5143Z" fill="#485FE5"/>
</svg>
